<?xml version="1.0" standalone="no"?><!DOCTYPE svg PUBLIC "-//W3C//DTD SVG 1.1//EN" "http://www.w3.org/Graphics/SVG/1.1/DTD/svg11.dtd"><svg t="1642067436994" class="icon" viewBox="0 0 1024 1024" version="1.1" xmlns="http://www.w3.org/2000/svg" p-id="5394" width="16" height="16" xmlns:xlink="http://www.w3.org/1999/xlink"><defs><style type="text/css"></style></defs><path d="M384 192c130.346 0 238.253 85.685 254.019 196.061C511.831 408.829 416 506.728 416 624c0 4.758 0.156 9.499 0.466 14.217A294.655 294.655 0 0 1 384 640c-26.864 0-53.306-3.624-78.591-10.772l-23.356-6.602-21.86 10.545-41.581 20.059 3.911-17.885 8.04-36.765-28.22-24.899c-23.561-20.787-41.993-44.935-54.786-71.773C134.58 474.685 128 445.782 128 416c0-123.514 114.841-224 256-224m0-64C207.269 128 64 256.942 64 416c0 80.565 36.756 153.403 96 205.673L128 768l160-77.185C318.305 699.382 350.553 704 384 704c38.496 0 75.401-6.122 109.587-17.336C484.817 667.195 480 646.075 480 624c0-97.202 93.125-176 208-176 4.697 0 9.353 0.145 13.972 0.404A262.216 262.216 0 0 0 704 416c0-159.058-143.269-288-320-288z" p-id="5395"></path><path d="M272 336m-48 0a48 48 0 1 0 96 0 48 48 0 1 0-96 0Z" p-id="5396"></path><path d="M496 336m-48 0a48 48 0 1 0 96 0 48 48 0 1 0-96 0Z" p-id="5397"></path><path d="M584 568m-40 0a40 40 0 1 0 80 0 40 40 0 1 0-80 0Z" p-id="5398"></path><path d="M792 568m-40 0a40 40 0 1 0 80 0 40 40 0 1 0-80 0Z" p-id="5399"></path><path d="M688 448c29.053 0 57.146 4.986 83.497 14.821 25.03 9.342 47.402 22.619 66.492 39.463C875.398 535.292 896 578.518 896 624c0 27.464-7.31 53.771-21.727 78.19-14.32 24.255-35.439 45.765-61.073 62.204L776.08 788.2l2.572 12.302-9.96-3.281-16.06-5.29-16.577 3.332C720.419 798.406 704.25 800 688 800c-29.053 0-57.146-4.986-83.497-14.821-25.03-9.342-47.402-22.619-66.492-39.463C500.602 712.708 480 669.482 480 624s20.602-88.708 58.011-121.716c19.09-16.845 41.462-30.122 66.492-39.463C630.854 452.986 658.947 448 688 448m0-64c-150.221 0-272 107.452-272 240s121.779 240 272 240c20.854 0 41.16-2.071 60.668-5.992L864 896l-16.251-77.733C915.774 774.642 960 703.878 960 624c0-132.548-121.779-240-272-240z" p-id="5400"></path></svg>